<svg xmlns="http://www.w3.org/2000/svg" width="430" height="430" fill="none" viewBox="0 0 430 430"><path fill="#e86830" d="M187.714 364.151v-70.824h-34.292v70.824z"/><path fill="#e86830" d="M153.422 293.327h34.292v17.706h-34.292z" opacity=".5" style="mix-blend-mode:multiply"/><path fill="#e86830" d="M275.236 194.15 365 153.695v139.968l-89.764-40.455"/><path fill="#e86830" d="m295.236 185.136-20 9.014h-7.233v59.058h7.233L365 293.663v-29.014l-69.764-31.441z" opacity=".5" style="mix-blend-mode:multiply"/><path fill="#e86830" d="M261.789 293.327H79.348c-7.397 0-13.448-6.052-13.448-13.448V167.478c0-7.396 6.051-13.447 13.448-13.447h182.441c7.396 0 13.447 6.051 13.447 13.447v112.401c0 7.396-6.051 13.448-13.447 13.448"/><path fill="#e86830" d="M79.348 293.327h20c-7.397 0-13.448-6.052-13.448-13.448V167.478c0-7.396 6.051-13.447 13.448-13.447h-20c-7.397 0-13.448 6.051-13.448 13.447v112.401c0 7.396 6.051 13.448 13.448 13.448" opacity=".5" style="mix-blend-mode:multiply"/><path fill="#000" d="M256.185 104.05h-69.48c-7.396 0-13.447-6.052-13.447-13.448V79.396c0-7.397 6.051-13.448 13.447-13.448h69.48c10.422 0 19.051 8.517 19.051 19.051s-8.629 19.051-19.051 19.051"/><path fill="#000" d="M186.705 104.05h20c-7.396 0-13.447-6.052-13.447-13.448V79.396c0-7.397 6.051-13.448 13.447-13.448h-20c-7.396 0-13.447 6.052-13.447 13.448v11.206c0 7.396 6.051 13.448 13.447 13.448" opacity=".5" style="mix-blend-mode:multiply"/><path stroke="#242424" stroke-linecap="round" stroke-linejoin="round" stroke-miterlimit="10" stroke-width="3.5" d="M261.789 293.327H79.348c-7.397 0-13.448-6.052-13.448-13.448V167.478c0-7.396 6.051-13.447 13.448-13.447h182.441c7.396 0 13.447 6.051 13.447 13.447v112.401c0 7.396-6.051 13.448-13.447 13.448m13.447-99.177L365 153.695v139.968l-89.764-40.455m-164.734-99.401v-30.93c0-20.732 16.809-37.654 37.653-37.654h25.103"/><path stroke="#242424" stroke-linecap="round" stroke-linejoin="round" stroke-miterlimit="10" stroke-width="3.5" d="M256.185 104.05h-69.48c-7.396 0-13.447-6.052-13.447-13.448V79.396c0-7.397 6.051-13.448 13.447-13.448h69.48c10.422 0 19.051 8.517 19.051 19.051s-8.629 19.051-19.051 19.051m-68.471 189.277v70.824h-34.292v-70.824m-38.214-33.732h110.608"/></svg>